<svg id="Layer_1" data-name="Layer 1" xmlns="http://www.w3.org/2000/svg" viewBox="0 0 842.22 458.62"><path d="M363.5,581.93a9.76,9.76,0,0,0-10.25.4C267.74,638.76,171.44,606,130.69,526.41c-42.5-83-5.93-175,75.43-210.14,74.77-32.31,156.34,2,190,63.49a9.62,9.62,0,0,1-8.5,14.14h0c-13.2,0-26.42.41-39.6-.2a18.17,18.17,0,0,1-11.42-5.05C305,354.91,255.3,347.48,215.71,371c-51.37,30.5-63.28,105.62-23.84,150.4,28.69,32.59,69.26,44,106.32,29.61,5.45-2.11,10.54-5.21,15.71-8,12.13-6.59,19-14.7,19.59-30.61,1.06-30.35,26.62-57,56.35-63.63,32.46-7.21,61.2,5.42,79.57,32.32,15.16,22.21,15.25,62.45-4,86.14-20.05,24.68-53.48,35-83.41,24.26C375.68,589.18,369.83,585.57,363.5,581.93Zm25.48-36a9.68,9.68,0,0,0,5,14.28A39.15,39.15,0,0,0,433.72,552a41.87,41.87,0,0,0,8.07-51.5c-9.25-16.19-28.83-24.28-46.07-19a40.59,40.59,0,0,0-27.94,29.7,9.57,9.57,0,0,0,9.43,11.53H386a9.62,9.62,0,0,1,8.32,14.42c-.42.73-.84,1.46-1.27,2.18C391.72,541.52,390.38,543.7,389,545.9Z" transform="translate(-112.82 -303.88)" fill="#0d6894"/><path d="M864.78,550c-6.3,30.43-48.56,51.7-84.36,43.39-39.34-9.14-63.44-50.91-52.88-91.64,10.18-39.27,51.65-63.31,90.4-52.41,36.83,10.37,60.83,51.46,50,86.79H761.26c4.59,14,13.62,21.75,26.18,24.89,13.7,3.42,26.78,1.4,38.26-7.85a13.92,13.92,0,0,1,8.17-3C844,549.76,854.06,550,864.78,550Zm-29.21-44.49c-5.09-16.54-20.3-26.2-38.87-25.48-16.42.63-31.83,11.83-34.65,25.48Z" transform="translate(-112.82 -303.88)" fill="#0d6894"/><path d="M613.74,590.85h-33.2V452h30.22c.4,3.08.78,6.06,1.35,10.53,9.64-10.8,21.3-15.1,34.59-15.54,29.49-1,53.58,17.68,55.71,47,2.3,31.55,1.21,63.34,1.55,95,0,.47-.51,1-1,1.85H670.66c-.15-3.15-.4-6.15-.41-9.14-.11-21.05,0-42.1-.34-63.15a92.2,92.2,0,0,0-2.35-19.15c-2.78-12-11.42-18.9-23.28-19.43-13.34-.6-23.28,5-26.9,17a90.16,90.16,0,0,0-3.49,24C613.45,544,613.74,567,613.74,590.85Z" transform="translate(-112.82 -303.88)" fill="#0d6894"/><path d="M704.21,635.54c-2.91-2.17-5.64-4.65-8.77-6.44-3.84-2.2-8.08-5.38-12-5.2-3.07.13-8,4.46-8.41,7.43-.54,4,1.45,9.43,4.29,12.42s7.94,3.74,12.15,5.25c12.52,4.47,17.61,11.6,16.73,23.7a22.18,22.18,0,0,1-18.5,20.2c-12.65,2-22.19-2.46-26.54-13.88-2.36-6.19-6.58-5-10.83-5q-125.59-.06-251.2,0-112.11,0-224.22-.08c-3.42,0-9.29,2.2-7.69-5.85H669.62a67.24,67.24,0,0,0,2.31,7.58c2.57,6,7.17,9.33,13.83,9,6.32-.32,10.68-3.8,12.14-9.86,1.57-6.49-1.23-11.62-7-14.85a64.93,64.93,0,0,0-10-4.36c-9-3.2-16-8.15-17.28-19.37H651.73q-236,0-472-.13c-3.62,0-7.25-1.89-10.87-2.9,3.62-1,7.25-2.85,10.87-2.86q236.86-.21,473.74-.06c6.06,0,10.82-.16,14.43-6.3,4.12-7,14.42-11.57,22.36-9.8,10.76,2.4,15.78,8.67,16.18,20.27Z" transform="translate(-112.82 -303.88)" fill="#0b988c"/><path d="M502.49,451.7h24.26a2.75,2.75,0,0,1,2.72,2.37l.41,2.83a2.74,2.74,0,0,0,4.67,1.29c7.23-7.32,15.29-11.66,25.64-11.12a2.75,2.75,0,0,1,2.53,2.76v27.25a2.76,2.76,0,0,1-2.47,2.74l-.26,0c-13.42,1.41-25.25,13.56-26,27-.75,13.12-.57,26.3-.7,39.45-.14,13.68,0,27.37,0,41.57a2.77,2.77,0,0,1-2.75,2.78h-28a2.76,2.76,0,0,1-2.75-2.76V454.46A2.76,2.76,0,0,1,502.49,451.7Z" transform="translate(-112.82 -303.88)" fill="#0d6894"/><path d="M925.69,590.87H892.51V452H922c.33,2.61.69,5.47,1.27,10.12,8.38-10.5,18.16-15.52,31.7-15.08,0,9.74.21,19.44-.23,29.12-.06,1.42-3,3.52-4.94,3.91-16.87,3.51-23.91,11.51-24.06,29.14C925.51,536.16,925.69,563.06,925.69,590.87Z" transform="translate(-112.82 -303.88)" fill="#0d6894"/><path d="M831.25,693.23c-18.48,2.65-39.35-17-38.76-39.83.55-21.61,17.09-39.69,37.54-39.78,22.83-.09,39.79,16.5,40.45,38.53C871.12,674,853.43,695.45,831.25,693.23Zm-29-38.59c.13,17,13.28,30.31,29.66,30.09,16.08-.23,29.28-14.15,29.27-30.88,0-17.19-13.39-31.52-29.53-31.62C815.21,622.13,802.14,636.54,802.28,654.64Z" transform="translate(-112.82 -303.88)" fill="#0b988c"/><path d="M769.69,631.24a22.2,22.2,0,0,1,9.29,9.41,32,32,0,0,1,3.38,15.29v38.25H771.7V657.47q0-9.71-4.86-14.86t-13.26-5.15q-8.54,0-13.56,5.33t-5,15.51v35.89H724.2V606.54H735v32a21.26,21.26,0,0,1,8.82-7.69,28.54,28.54,0,0,1,12.62-2.73A27.92,27.92,0,0,1,769.69,631.24Z" transform="translate(-112.82 -303.88)" fill="#0b988c"/><path d="M908.09,626.81a28.54,28.54,0,0,1,14.75-3.73,30.42,30.42,0,0,1,15.7,4.14,29.31,29.31,0,0,1,11.07,11.67,36.42,36.42,0,0,1,4,17.47,37.17,37.17,0,0,1-4,17.53,29.54,29.54,0,0,1-26.77,16.23,28.4,28.4,0,0,1-14.63-3.73,26.73,26.73,0,0,1-9.65-9.3v42.76H887.78v-95.7h10.78v12A25.67,25.67,0,0,1,908.09,626.81Zm31.57,16.76a20.48,20.48,0,0,0-8-8.29,22.11,22.11,0,0,0-11.08-2.85,21.47,21.47,0,0,0-11,2.91,21.16,21.16,0,0,0-8.06,8.41,28.59,28.59,0,0,0,0,25.58,21.16,21.16,0,0,0,8.06,8.41,21.47,21.47,0,0,0,11,2.91,21.76,21.76,0,0,0,11.08-2.91,20.8,20.8,0,0,0,8-8.41,27,27,0,0,0,3-13A26.44,26.44,0,0,0,939.66,643.57Z" transform="translate(-112.82 -303.88)" fill="#0b988c"/><path d="M178,732.81a7.73,7.73,0,0,0-1.21-3.21c-.7-1.11-1.57-1.46-4.56-1.46h-2.94c-1.27,0-1.38.11-1.38,1.3v9.22H172c3.69,0,3.91-.38,4.42-2.94h1.19v7.77h-1.21c-.49-2.75-.71-3.19-4.4-3.19h-4.05v6.88c0,3.51.36,3.75,4.05,4v1.13H160.61V751.2c3.21-.24,3.56-.51,3.56-4v-15.4c0-3.48-.35-3.69-3.46-3.91v-1.19h18.07c.06,1.46.25,4,.43,5.94Z" transform="translate(-112.82 -303.88)" fill="#6e6e6d"/><path d="M199.52,734.67a8.72,8.72,0,0,1,8.9,8.74,8.94,8.94,0,0,1-8.93,9.38,8.7,8.7,0,0,1-9.09-8.66,9.24,9.24,0,0,1,9.09-9.46ZM199,736c-2.32,0-4.48,2.35-4.48,6.8,0,5,2.16,8.63,5.39,8.63,2.32,0,4.4-1.57,4.4-7.1,0-4.72-1.89-8.33-5.26-8.33Z" transform="translate(-112.82 -303.88)" fill="#6e6e6d"/><path d="M226.11,738.93c1.32-2.16,3-4.26,4.83-4.26a2.27,2.27,0,0,1,2.42,2,2.34,2.34,0,0,1-1.4,2.13,1,1,0,0,1-1.08-.11,2.43,2.43,0,0,0-1.75-.81c-1,0-2.24,1.16-3.1,3.27v7c0,2.58.19,2.83,3.32,3.07v1.05h-9.58v-1.05c2.43-.24,2.78-.49,2.78-3.07V740c0-2.5-.22-2.67-2.46-3v-.89a25.94,25.94,0,0,0,5.94-1.62v4.4Z" transform="translate(-112.82 -303.88)" fill="#6e6e6d"/><path d="M301.81,727.87c-2.75.38-3.19.78-4.4,4.07-.94,2.51-3.37,9.79-6.74,20.82h-1.43c-2.27-6.28-5-13.83-7.07-19.36h-.08c-2.24,6.72-4.5,13.08-6.61,19.36h-1.4c-2.16-7.12-4.45-14-6.69-20.9-1-3.26-1.64-3.69-4.12-4v-1.19h10.22v1.19c-3,.35-3,.78-2.43,2.78,1.57,5.18,3.13,10.44,4.91,15.86h.08c2.1-6.5,4.42-13,6.47-19.47h1.35c2.27,6.47,4.61,12.83,7.09,19.52h.09c1.72-5.34,3.93-13,4.53-15.48.56-2.35.43-2.86-2.81-3.21v-1.19h9Z" transform="translate(-112.82 -303.88)" fill="#6e6e6d"/><path d="M318.09,734.67a8.72,8.72,0,0,1,8.9,8.74,8.93,8.93,0,0,1-8.92,9.38,8.69,8.69,0,0,1-9.09-8.66,9.24,9.24,0,0,1,9.09-9.46Zm-.51,1.32c-2.32,0-4.48,2.35-4.48,6.8,0,5,2.16,8.63,5.4,8.63,2.32,0,4.39-1.57,4.39-7.1,0-4.72-1.88-8.33-5.26-8.33Z" transform="translate(-112.82 -303.88)" fill="#6e6e6d"/><path d="M344.68,738.93c1.32-2.16,3-4.26,4.83-4.26a2.28,2.28,0,0,1,2.43,2,2.34,2.34,0,0,1-1.41,2.13,1,1,0,0,1-1.07-.11,2.43,2.43,0,0,0-1.76-.81c-1,0-2.24,1.16-3.1,3.27v7c0,2.58.19,2.83,3.32,3.07v1.05h-9.58v-1.05c2.43-.24,2.78-.49,2.78-3.07V740c0-2.5-.21-2.67-2.45-3v-.89a26,26,0,0,0,5.93-1.62v4.4Z" transform="translate(-112.82 -303.88)" fill="#6e6e6d"/><path d="M376.29,752.41c-1.84-2-4.34-5.26-6.45-7.76-.48-.6-.81-.81-1.16-.81a1.6,1.6,0,0,0-.59,0v4.29c0,2.61.35,2.8,2.91,3.1v1.05h-9.28v-1.05c2.67-.3,2.94-.57,2.94-3.1V729.62c0-2.56-.24-2.77-2.67-3v-.94a35.73,35.73,0,0,0,6.1-1.38v18.59a4.87,4.87,0,0,0,2.48-1.38,24.93,24.93,0,0,0,2.75-3.45c.81-1.19.65-1.51-1.19-1.73v-1.08l8.42-.35v1c-2.73.43-3.75.86-5.29,2.29a48.65,48.65,0,0,0-3.37,3.64c.84,1.21,5,5.93,6.26,7.28a5.73,5.73,0,0,0,4,2.16v1.05Z" transform="translate(-112.82 -303.88)" fill="#6e6e6d"/><path d="M392,752.33v-1.05c2.51-.24,2.81-.49,2.81-3.24v-7.92c0-2.49-.14-2.67-2.51-3.08v-.94a30,30,0,0,0,6-1.51V748c0,2.73.27,2.94,2.83,3.24v1.05Zm2.11-23.14a2.2,2.2,0,0,1,2.21-2.21,2.17,2.17,0,0,1-.06,4.34A2.2,2.2,0,0,1,394.06,729.19Z" transform="translate(-112.82 -303.88)" fill="#6e6e6d"/><path d="M423.56,752.33v-1.05c2.29-.24,2.56-.57,2.56-3.34v-6.42c0-2.75-1.1-4.4-3.56-4.4a7.21,7.21,0,0,0-4.21,1.94v9.12c0,2.7.22,2.86,2.54,3.1v1.05H412v-1.05c2.67-.32,2.89-.51,2.89-3.16V740.2c0-2.57-.27-2.73-2.38-3.11v-1a26.68,26.68,0,0,0,5.85-1.57v3.18c.81-.59,1.68-1.21,2.7-1.88a5.94,5.94,0,0,1,3.32-1.16c3.18,0,5.2,2.24,5.2,6.15v7.36c0,2.7.25,2.8,2.57,3.1v1.05Z" transform="translate(-112.82 -303.88)" fill="#6e6e6d"/><path d="M460.94,735.45a5.47,5.47,0,0,1-1.81,2l-2.27-.11a5.5,5.5,0,0,1,1.14,3.46c0,4.2-3.64,6.28-7.18,6.28a16.71,16.71,0,0,1-2.1-.19,2.21,2.21,0,0,0-1,1.48c0,.76.73,1.54,2.54,1.54,1.4,0,2.78-.08,4.15-.08,2.43,0,5.85.76,5.85,4.72s-4.8,7.93-10.16,7.93c-4.56,0-7-2.59-7-4.83a2.9,2.9,0,0,1,1.05-2.26c.89-.84,2.29-1.86,3.24-2.62a5.05,5.05,0,0,1-3-2.16,2.76,2.76,0,0,1-.46-1.75,8.64,8.64,0,0,0,3.56-2.37,5.7,5.7,0,0,1-3.53-5.29c0-4.53,4.13-6.55,7.31-6.55h.05a8.46,8.46,0,0,1,3.89,1c2.05-.11,4.12-.36,5.61-.54Zm-9.39,17.48c-1.83,0-2.75.24-3.45.8a4.19,4.19,0,0,0-1.7,2.92c0,2.07,2.21,3.83,5.31,3.83,3.62,0,5.58-1.89,5.58-4.29a2.82,2.82,0,0,0-1.86-2.81,11.28,11.28,0,0,0-3.83-.45Zm-.73-17c-1.62,0-3.18,1.56-3.18,4.66s1.43,5.24,3.61,5.24c1.73,0,3.21-1.57,3.21-4.67s-1.37-5.23-3.61-5.23Z" transform="translate(-112.82 -303.88)" fill="#6e6e6d"/><path d="M502.11,726.68c2.89,0,5.21.46,6.83,1.65a6.6,6.6,0,0,1,2.64,5.61c0,5.15-3.94,7.63-7.88,8.09a11.19,11.19,0,0,1-1.88.05l-3-.75v6c0,3.37.35,3.59,4,3.86v1.13H491.54V751.2c3.21-.27,3.56-.59,3.56-3.88V731.75c0-3.53-.35-3.69-3.34-3.88v-1.19ZM498.8,740a8.79,8.79,0,0,0,2.88.49c2.51,0,5.69-1.35,5.69-6.37,0-4.28-2.75-6.06-5.93-6.06a3.7,3.7,0,0,0-2.21.48c-.27.27-.43.7-.43,1.81Z" transform="translate(-112.82 -303.88)" fill="#6e6e6d"/><path d="M535.33,752.79a3.22,3.22,0,0,1-2.05-.78,3.54,3.54,0,0,1-1-1.67c-1.61,1-3.5,2.45-4.64,2.45a4.87,4.87,0,0,1-5-4.85c0-2,1.08-3.16,3.27-3.86,2.56-.81,5.34-1.83,6.2-2.56v-.7c0-2.84-1.3-4.35-3.21-4.35a2.26,2.26,0,0,0-1.7.71,6.16,6.16,0,0,0-1.21,2.67,1.26,1.26,0,0,1-1.3,1,2,2,0,0,1-1.83-1.76c0-.59.51-1.08,1.29-1.61a18.47,18.47,0,0,1,6.12-2.78,5.36,5.36,0,0,1,3.35,1c1.48,1.24,1.91,2.88,1.91,5v7.1c0,1.75.7,2.34,1.43,2.34a3.16,3.16,0,0,0,1.43-.43l.41,1.05Zm-3.15-9.9c-.81.41-2.43,1.16-3.26,1.54-1.57.67-2.43,1.46-2.43,2.91a2.82,2.82,0,0,0,2.75,3,4.81,4.81,0,0,0,2.94-1.3Z" transform="translate(-112.82 -303.88)" fill="#6e6e6d"/><path d="M549,752.33v-1.05c2.51-.3,2.86-.51,2.86-3.16v-18.5c0-2.67-.27-2.75-2.75-3v-1a36.3,36.3,0,0,0,6.2-1.38v23.84c0,2.67.35,2.92,3,3.16v1.05Z" transform="translate(-112.82 -303.88)" fill="#6e6e6d"/><path d="M583.93,748.83c-2.59,3.26-5.48,4-6.77,4-4.94,0-7.85-4-7.85-8.36a9.84,9.84,0,0,1,2.56-6.74,8.46,8.46,0,0,1,6-3h0a6.24,6.24,0,0,1,6.15,6.07c0,.75-.22,1.1-.94,1.26s-5.75.52-10.39.68c.08,5.09,3.08,7.25,5.85,7.25a6.65,6.65,0,0,0,4.64-2Zm-7-12.68c-1.73,0-3.45,1.54-4,4.83,2.13,0,4.26,0,6.5-.08.7,0,.94-.25.94-.76,0-2.07-1.29-4-3.39-4Z" transform="translate(-112.82 -303.88)" fill="#6e6e6d"/><path d="M606,739.93c-.78-2.32-2.19-4-4.15-4a2.45,2.45,0,0,0-2.49,2.62c0,1.62,1.51,2.56,3.32,3.26,3.05,1.21,5.13,2.64,5.13,5.42,0,3.7-3.4,5.53-6.72,5.53a8.34,8.34,0,0,1-4.64-1.29,21.43,21.43,0,0,1-.7-4.86l1.11-.16c.75,2.64,2.56,5,4.93,5a2.69,2.69,0,0,0,2.75-2.67c0-1.62-1-2.51-3.1-3.43-2.32-1-5.1-2.4-5.1-5.52,0-2.81,2.43-5.18,6.21-5.18a8.58,8.58,0,0,1,3.61.7,22.29,22.29,0,0,1,.92,4.23Z" transform="translate(-112.82 -303.88)" fill="#6e6e6d"/><path d="M627.29,752.25a3.74,3.74,0,0,1-1.7.54c-2.67,0-4.15-1.51-4.15-4.69V736.77h-2.73l-.19-.46,1.11-1.18h1.81v-2.86l2.94-2.75.54.1v5.51h4.47a1.15,1.15,0,0,1-.27,1.64h-4.2v10c0,3.18,1.37,3.72,2.37,3.72a5.62,5.62,0,0,0,2.43-.67l.35,1.08Z" transform="translate(-112.82 -303.88)" fill="#6e6e6d"/><path d="M640.85,752.33v-1.05c2.51-.24,2.81-.49,2.81-3.24v-7.92c0-2.49-.14-2.67-2.51-3.08v-.94a30,30,0,0,0,6-1.51V748c0,2.73.27,2.94,2.83,3.24v1.05ZM643,729.19a2.2,2.2,0,0,1,2.21-2.21,2.17,2.17,0,0,1-.06,4.34A2.2,2.2,0,0,1,643,729.19Z" transform="translate(-112.82 -303.88)" fill="#6e6e6d"/><path d="M672.46,752.33v-1.05c2.29-.24,2.56-.57,2.56-3.34v-6.42c0-2.75-1.11-4.4-3.56-4.4a7.21,7.21,0,0,0-4.21,1.94v9.12c0,2.7.22,2.86,2.54,3.1v1.05h-8.9v-1.05c2.67-.32,2.88-.51,2.88-3.16V740.2c0-2.57-.27-2.73-2.37-3.11v-1a26.83,26.83,0,0,0,5.85-1.57v3.18c.81-.59,1.67-1.21,2.7-1.88a5.94,5.94,0,0,1,3.32-1.16c3.18,0,5.2,2.24,5.2,6.15v7.36c0,2.7.24,2.8,2.56,3.1v1.05Z" transform="translate(-112.82 -303.88)" fill="#6e6e6d"/><path d="M692.22,752.33v-1.05c2.51-.24,2.81-.49,2.81-3.24v-7.92c0-2.49-.14-2.67-2.51-3.08v-.94a30,30,0,0,0,6-1.51V748c0,2.73.27,2.94,2.83,3.24v1.05Zm2.11-23.14a2.2,2.2,0,0,1,2.21-2.21,2.17,2.17,0,0,1-.06,4.34A2.2,2.2,0,0,1,694.33,729.19Z" transform="translate(-112.82 -303.88)" fill="#6e6e6d"/><path d="M725.31,752.79a3.2,3.2,0,0,1-2-.78,3.54,3.54,0,0,1-1-1.67c-1.62,1-3.5,2.45-4.64,2.45a4.87,4.87,0,0,1-5-4.85c0-2,1.08-3.16,3.26-3.86,2.57-.81,5.34-1.83,6.21-2.56v-.7c0-2.84-1.3-4.35-3.21-4.35a2.26,2.26,0,0,0-1.7.71,6.16,6.16,0,0,0-1.22,2.67,1.25,1.25,0,0,1-1.29,1,2,2,0,0,1-1.83-1.76c0-.59.51-1.08,1.29-1.61a18.37,18.37,0,0,1,6.12-2.78,5.36,5.36,0,0,1,3.35,1c1.48,1.24,1.91,2.88,1.91,5v7.1c0,1.75.7,2.34,1.43,2.34a3.16,3.16,0,0,0,1.43-.43l.4,1.05Zm-3.15-9.9c-.81.41-2.43,1.16-3.27,1.54-1.56.67-2.42,1.46-2.42,2.91a2.82,2.82,0,0,0,2.75,3,4.81,4.81,0,0,0,2.94-1.3Z" transform="translate(-112.82 -303.88)" fill="#6e6e6d"/><path d="M750.58,752.33v-1.05c2.29-.24,2.56-.57,2.56-3.34v-6.42c0-2.75-1.1-4.4-3.56-4.4a7.21,7.21,0,0,0-4.21,1.94v9.12c0,2.7.22,2.86,2.54,3.1v1.05H739v-1.05c2.67-.32,2.89-.51,2.89-3.16V740.2c0-2.57-.27-2.73-2.38-3.11v-1a26.68,26.68,0,0,0,5.85-1.57v3.18c.81-.59,1.68-1.21,2.7-1.88a5.94,5.94,0,0,1,3.32-1.16c3.18,0,5.2,2.24,5.2,6.15v7.36c0,2.7.25,2.8,2.57,3.1v1.05Z" transform="translate(-112.82 -303.88)" fill="#6e6e6d"/><path d="M828.22,727.87c-2.75.38-3.18.78-4.4,4.07-.94,2.51-3.37,9.79-6.74,20.82h-1.43c-2.26-6.28-5-13.83-7.07-19.36h-.08c-2.23,6.72-4.5,13.08-6.6,19.36h-1.41c-2.15-7.12-4.45-14-6.68-20.9-1-3.26-1.65-3.69-4.13-4v-1.19H799.9v1.19c-3,.35-3,.78-2.43,2.78,1.57,5.18,3.13,10.44,4.91,15.86h.08c2.11-6.5,4.43-13,6.48-19.47h1.34c2.27,6.47,4.62,12.83,7.1,19.52h.08c1.72-5.34,3.93-13,4.53-15.48.56-2.35.43-2.86-2.81-3.21v-1.19h9Z" transform="translate(-112.82 -303.88)" fill="#6e6e6d"/><path d="M844.5,734.67a8.72,8.72,0,0,1,8.9,8.74,8.93,8.93,0,0,1-8.92,9.38,8.69,8.69,0,0,1-9.09-8.66,9.24,9.24,0,0,1,9.09-9.46ZM844,736c-2.32,0-4.47,2.35-4.47,6.8,0,5,2.15,8.63,5.39,8.63,2.32,0,4.4-1.57,4.4-7.1,0-4.72-1.89-8.33-5.26-8.33Z" transform="translate(-112.82 -303.88)" fill="#6e6e6d"/><path d="M887,752.33v-1.05c2.24-.24,2.7-.43,2.7-3.24v-6.36c0-3-1.13-4.56-3.45-4.56a7.37,7.37,0,0,0-4.26,2,14.28,14.28,0,0,1,.1,1.65v7.57c0,2.48.38,2.73,2.57,3v1.05h-8.82v-1.05c2.4-.24,2.75-.43,2.75-3V741.6c0-3-1.11-4.48-3.4-4.48-1.51,0-3,1-4.21,1.94v9.2c0,2.53.35,2.78,2.19,3v1.05h-8.63v-1.05c2.59-.24,3-.49,3-3.07v-8c0-2.51-.13-2.75-2.42-3.11v-1a27.31,27.31,0,0,0,5.85-1.57v3.24c.86-.57,1.73-1.3,2.94-2a6.13,6.13,0,0,1,3.32-1.08,4.89,4.89,0,0,1,4.47,3.23c1.19-.86,2.32-1.59,3.29-2.23a5.79,5.79,0,0,1,3-1c3.19,0,5.24,2.18,5.24,6.15v7.44c0,2.62.26,2.72,2.58,3v1.05Z" transform="translate(-112.82 -303.88)" fill="#6e6e6d"/><path d="M919.8,752.79a3.18,3.18,0,0,1-2-.78,3.54,3.54,0,0,1-1-1.67c-1.62,1-3.51,2.45-4.64,2.45a4.86,4.86,0,0,1-5-4.85c0-2,1.07-3.16,3.26-3.86,2.56-.81,5.34-1.83,6.2-2.56v-.7c0-2.84-1.29-4.35-3.21-4.35a2.28,2.28,0,0,0-1.7.71,6.16,6.16,0,0,0-1.21,2.67,1.25,1.25,0,0,1-1.29,1,2,2,0,0,1-1.84-1.76c0-.59.51-1.08,1.3-1.61a18.37,18.37,0,0,1,6.12-2.78,5.31,5.31,0,0,1,3.34,1c1.49,1.24,1.92,2.88,1.92,5v7.1c0,1.75.7,2.34,1.43,2.34a3.23,3.23,0,0,0,1.43-.43l.4,1.05Zm-3.16-9.9c-.81.41-2.43,1.16-3.26,1.54-1.57.67-2.43,1.46-2.43,2.91a2.82,2.82,0,0,0,2.75,3,4.78,4.78,0,0,0,2.94-1.3Z" transform="translate(-112.82 -303.88)" fill="#6e6e6d"/><path d="M945.06,752.33v-1.05c2.3-.24,2.57-.57,2.57-3.34v-6.42c0-2.75-1.11-4.4-3.56-4.4a7.18,7.18,0,0,0-4.21,1.94v9.12c0,2.7.22,2.86,2.53,3.1v1.05H933.5v-1.05c2.67-.32,2.88-.51,2.88-3.16V740.2c0-2.57-.27-2.73-2.37-3.11v-1a26.83,26.83,0,0,0,5.85-1.57v3.18c.81-.59,1.67-1.21,2.7-1.88a5.94,5.94,0,0,1,3.31-1.16c3.19,0,5.21,2.24,5.21,6.15v7.36c0,2.7.24,2.8,2.56,3.1v1.05Z" transform="translate(-112.82 -303.88)" fill="#6e6e6d"/></svg>